# xmcd
#
# Track frame offsets: 
#        195
#        18191
#        34983
#        51687
#        67405
#        79805
#        91968
#        108027
#        123656
#        137034
#        158790
#        175808
#
# Disc length: 2641 seconds
#
# Revision: 0
# Processed by: cddbd v1.5.1PL0 Copyright (c) Steve Scherf et al.
# Submitted via: ExactAudioCopy v0.95a5
#
DISCID=a60a4f0c
DTITLE=Sandra Hall - One Drop Will Do You
DYEAR=1997
DGENRE=Blues
TTITLE0=Pump Up Your Love
TTITLE1=Ask Me No Questions
TTITLE2=Find You A Job
TTITLE3=Boogie Woogie Fever
TTITLE4=One Drop Will Do You
TTITLE5=Big Long Slidin' Thing
TTITLE6=I'm Hurtin'
TTITLE7=Blow Top Blues
TTITLE8=Party At My House
TTITLE9=Ease The Pain
TTITLE10=My Henhouse
TTITLE11=Use What You Got
EXTD=
EXTT0=
EXTT1=
EXTT2=
EXTT3=
EXTT4=
EXTT5=
EXTT6=
EXTT7=
EXTT8=
EXTT9=
EXTT10=
EXTT11=
PLAYORDER=
